<svg width="134" height="62" viewBox="0 0 134 62" fill="none" xmlns="http://www.w3.org/2000/svg">
<g clip-path="url(#clip0_53_18)">
<path d="M37.7184 18.8781H44.4709C44.8649 18.8781 45.1908 19.1964 45.1908 19.5981L45.6076 30.011C45.6076 30.4051 45.2893 30.731 44.8877 30.731H37.347C36.9529 30.731 36.6271 30.4127 36.6271 30.011L36.9984 19.5981C36.9984 19.204 37.3167 18.8781 37.7184 18.8781Z" fill="white"/>
<path d="M54.9444 18.8781H61.6969C62.0909 18.8781 62.4168 19.1964 62.4168 19.5981L62.8336 30.011C62.8336 30.4051 62.5153 30.731 62.1137 30.731H54.573C54.179 30.731 53.8531 30.4127 53.8531 30.011L54.2244 19.5981C54.2244 19.204 54.5427 18.8781 54.9444 18.8781Z" fill="white"/>
<path d="M72.178 18.8781H78.9305C79.3245 18.8781 79.6504 19.1964 79.6504 19.5981L80.0672 30.011C80.0672 30.4051 79.7489 30.731 79.3473 30.731H71.8066C71.4125 30.731 71.0867 30.4127 71.0867 30.011L71.458 19.5981C71.458 19.204 71.7763 18.8781 72.178 18.8781Z" fill="white"/>
<path d="M89.404 18.8781H96.1565C96.5506 18.8781 96.8764 19.1964 96.8764 19.5981L97.2933 30.011C97.2933 30.4051 96.975 30.731 96.5733 30.731H89.0326C88.6386 30.731 88.3127 30.4127 88.3127 30.011L88.684 19.5981C88.684 19.204 89.0023 18.8781 89.404 18.8781Z" fill="white"/>
<path d="M35.1947 16.9759V16.5894C35.1947 16.3772 35.2705 16.2029 35.4145 16.0514C35.5585 15.8998 35.7404 15.8316 35.9526 15.8316H45.8426C46.0548 15.8316 46.2291 15.9074 46.3806 16.0514C46.5322 16.1953 46.6004 16.3772 46.6004 16.5894V16.9759C46.6004 17.1881 46.5246 17.3624 46.3806 17.514C46.2366 17.6656 46.0548 17.7338 45.8426 17.7338H35.9526C35.7404 17.7338 35.5661 17.658 35.4145 17.514C35.2629 17.37 35.1947 17.1881 35.1947 16.9759Z" fill="white"/>
<path d="M34.2398 14.1264V13.7399C34.2398 13.5277 34.3156 13.3534 34.4596 13.2018C34.6036 13.0502 34.7855 12.982 34.9977 12.982H98.5968C98.809 12.982 98.9833 13.0578 99.1348 13.2018C99.2864 13.3458 99.3546 13.5277 99.3546 13.7399V14.1264C99.3546 14.3386 99.2788 14.5129 99.1348 14.6645C98.9908 14.816 98.809 14.8842 98.5968 14.8842H34.9977C34.7855 14.8842 34.6112 14.8085 34.4596 14.6645C34.308 14.5205 34.2398 14.3386 34.2398 14.1264Z" fill="white"/>
<path d="M30.9128 54.0501V53.6636C30.9128 53.4514 30.9886 53.2771 31.1326 53.1255C31.2766 52.974 31.4585 52.9058 31.6707 52.9058H102.401C102.613 52.9058 102.788 52.9815 102.939 53.1255C103.091 53.2695 103.159 53.4514 103.159 53.6636V54.0501C103.159 54.2623 103.083 54.4366 102.939 54.5882C102.795 54.7398 102.613 54.808 102.401 54.808H31.6707C31.4585 54.808 31.2842 54.7322 31.1326 54.5882C30.9811 54.4442 30.9128 54.2623 30.9128 54.0501Z" fill="white"/>
<path d="M52.7769 16.9759V16.5894C52.7769 16.3772 52.8527 16.2029 52.9967 16.0514C53.1407 15.8998 53.3226 15.8316 53.5348 15.8316H63.4248C63.637 15.8316 63.8113 15.9074 63.9628 16.0514C64.1144 16.1953 64.1826 16.3772 64.1826 16.5894V16.9759C64.1826 17.1881 64.1068 17.3624 63.9628 17.514C63.8189 17.6656 63.637 17.7338 63.4248 17.7338H53.5348C53.3226 17.7338 53.1483 17.658 52.9967 17.514C52.8451 17.37 52.7769 17.1881 52.7769 16.9759Z" fill="white"/>
<path d="M69.8893 16.9759V16.5894C69.8893 16.3772 69.965 16.2029 70.109 16.0514C70.253 15.8998 70.4349 15.8316 70.6471 15.8316H80.5371C80.7493 15.8316 80.9236 15.9074 81.0752 16.0514C81.2268 16.1953 81.295 16.3772 81.295 16.5894V16.9759C81.295 17.1881 81.2192 17.3624 81.0752 17.514C80.9312 17.6656 80.7493 17.7338 80.5371 17.7338H70.6471C70.4349 17.7338 70.2606 17.658 70.109 17.514C69.9575 17.37 69.8893 17.1881 69.8893 16.9759Z" fill="white"/>
<path d="M87.479 16.9759V16.5894C87.479 16.3772 87.5548 16.2029 87.6988 16.0514C87.8428 15.8998 88.0247 15.8316 88.2369 15.8316H98.1269C98.3391 15.8316 98.5134 15.9074 98.665 16.0514C98.8165 16.1953 98.8847 16.3772 98.8847 16.5894V16.9759C98.8847 17.1881 98.809 17.3624 98.665 17.514C98.521 17.6656 98.3391 17.7338 98.1269 17.7338H88.2369C88.0247 17.7338 87.8504 17.658 87.6988 17.514C87.5472 17.37 87.479 17.1881 87.479 16.9759Z" fill="white"/>
<path d="M34.4748 12.0575L66.7669 0V1.52329L38.4762 12.065H34.4823L34.4748 12.0575ZM95.0576 12.0575L66.7669 1.52329V0L99.059 12.0575H95.0652H95.0576Z" fill="white"/>
<path d="M128.699 45.8123C129.002 45.1984 129.222 44.5012 129.358 43.7206C129.494 42.94 129.563 42.0609 129.563 41.0757C129.563 40.242 129.502 39.4311 129.388 38.643C129.275 37.8548 129.07 37.15 128.782 36.5361C128.494 35.9223 128.108 35.4221 127.623 35.0507C127.145 34.6794 126.539 34.4899 125.826 34.4899C124.599 34.4899 123.667 35.0735 123.03 36.233C122.393 37.3925 122.075 39.0371 122.075 41.159C122.075 42.0609 122.143 42.9097 122.28 43.713C122.416 44.5163 122.636 45.2136 122.939 45.8047C123.242 46.411 123.629 46.8808 124.099 47.2143C124.568 47.5477 125.144 47.7145 125.826 47.7145C126.508 47.7145 127.077 47.5477 127.554 47.2067C128.032 46.8657 128.418 46.4034 128.706 45.8123H128.699ZM131.313 35.4979C132.026 36.1496 132.586 36.9378 133.003 37.8548C133.42 38.7794 133.625 39.8252 133.625 41.0075C133.625 42.0609 133.45 43.0613 133.094 44.0086C132.746 44.9559 132.23 45.7744 131.571 46.4564C130.874 47.1688 130.055 47.7221 129.108 48.1161C128.168 48.5102 127.047 48.7148 125.743 48.7148C124.69 48.7148 123.697 48.5405 122.765 48.1995C121.833 47.8509 121.006 47.3507 120.294 46.699C119.589 46.0548 119.028 45.2742 118.619 44.3496C118.202 43.425 117.998 42.4019 117.998 41.2727C117.998 40.1435 118.202 39.0219 118.604 38.067C119.006 37.1121 119.559 36.286 120.264 35.604C120.961 34.9371 121.787 34.4141 122.75 34.058C123.712 33.6942 124.728 33.5123 125.811 33.5123C126.895 33.5123 127.903 33.6866 128.843 34.0428C129.782 34.399 130.608 34.884 131.298 35.5206L131.313 35.4979ZM111.177 48.6997C110.116 48.6997 109.131 48.5254 108.206 48.1843C107.282 47.8433 106.478 47.3431 105.796 46.6914C105.122 46.0548 104.599 45.2666 104.212 44.3269C103.826 43.3871 103.636 42.3565 103.636 41.2348C103.636 40.1132 103.834 39.0825 104.22 38.1276C104.607 37.1727 105.16 36.3543 105.865 35.6494C106.554 34.9674 107.388 34.4369 108.358 34.058C109.328 33.679 110.366 33.4896 111.465 33.4896C112.268 33.4896 112.996 33.5881 113.648 33.7775C114.307 33.967 114.86 34.1868 115.315 34.4369L115.944 33.8761H116.831L116.922 39.1432H116.027C115.52 37.5365 114.906 36.3618 114.201 35.604C113.489 34.8537 112.625 34.4748 111.602 34.4748C110.328 34.4748 109.358 35.0356 108.691 36.1572C108.024 37.2788 107.699 38.8552 107.699 40.8786C107.699 42.023 107.812 43.0006 108.04 43.8115C108.267 44.6224 108.563 45.2742 108.926 45.7668C109.32 46.2821 109.783 46.6611 110.321 46.9036C110.859 47.1461 111.45 47.2673 112.102 47.2673C113.049 47.2673 113.898 47.0097 114.641 46.4943C115.383 45.979 116.058 45.1984 116.672 44.1601L117.543 44.6906C117.255 45.2893 116.922 45.8198 116.55 46.2897C116.179 46.7596 115.747 47.1688 115.262 47.5023C114.724 47.8736 114.133 48.1692 113.489 48.3738C112.844 48.586 112.079 48.6921 111.2 48.6921L111.177 48.6997ZM96.6718 48.6997C95.7927 48.6997 94.9666 48.5936 94.2088 48.3738C93.4433 48.154 92.7992 47.8964 92.2687 47.6008L91.5639 48.3132H90.6999L90.5711 43.0991H91.4426C91.6396 43.5918 91.8897 44.1147 92.1929 44.6679C92.496 45.2211 92.8522 45.7062 93.2539 46.1457C93.6707 46.6004 94.133 46.9718 94.6407 47.2522C95.1561 47.5402 95.7472 47.6766 96.4369 47.6766C97.3614 47.6766 98.0662 47.4492 98.5589 47.0021C99.0515 46.555 99.294 45.9866 99.294 45.2969C99.294 44.7361 99.0818 44.2587 98.6725 43.8797C98.2557 43.4932 97.6115 43.1674 96.7324 42.8869C96.164 42.7051 95.6411 42.5383 95.1637 42.3792C94.6862 42.22 94.2391 42.0609 93.8147 41.9017C92.8446 41.5152 92.1247 40.962 91.6548 40.242C91.1849 39.5221 90.95 38.7188 90.95 37.8321C90.95 37.2713 91.0713 36.7256 91.3138 36.2103C91.5563 35.6949 91.9125 35.225 92.3823 34.8158C92.8295 34.4293 93.4054 34.1186 94.1027 33.8685C94.7999 33.6184 95.5577 33.5047 96.3762 33.5047C97.1947 33.5047 97.9223 33.6184 98.6195 33.8382C99.3167 34.058 99.8699 34.2777 100.264 34.5051L100.885 33.8912H101.772L101.856 38.8097H100.984C100.779 38.2792 100.544 37.7411 100.264 37.1879C99.9912 36.6347 99.7032 36.1799 99.3925 35.8086C99.059 35.4145 98.6801 35.1038 98.2406 34.8689C97.8086 34.6339 97.3008 34.5202 96.7173 34.5202C95.9821 34.5202 95.3834 34.7249 94.9212 35.1417C94.4589 35.5509 94.2239 36.0663 94.2239 36.6801C94.2239 37.2561 94.4285 37.726 94.8302 38.0897C95.2319 38.4535 95.8609 38.7794 96.7173 39.0522C97.2175 39.2189 97.7328 39.3932 98.2557 39.56C98.7786 39.7267 99.2409 39.8934 99.6502 40.045C100.635 40.4239 101.378 40.9468 101.893 41.6138C102.409 42.2807 102.659 43.1067 102.659 44.0995C102.659 44.721 102.515 45.3272 102.219 45.9108C101.931 46.4943 101.537 46.9794 101.037 47.3659C100.491 47.7903 99.8699 48.1237 99.1575 48.3511C98.4452 48.5784 97.6191 48.6997 96.6642 48.6997H96.6718ZM88.919 37.5668H88.1459C87.9489 37.0212 87.6079 36.4603 87.1304 35.8995C86.653 35.3387 86.1679 35.0053 85.6981 34.9068C85.4935 34.8613 85.2131 34.831 84.8493 34.8234C84.4855 34.8158 84.1899 34.8082 83.9474 34.8082H81.8558V40.3785H83.3411C83.7125 40.3785 84.0535 40.333 84.3567 40.2496C84.6598 40.1587 84.9402 39.9919 85.1903 39.7419C85.3495 39.5827 85.501 39.3099 85.6602 38.9158C85.8193 38.5217 85.9254 38.1807 85.9709 37.8927H86.7439V43.91H85.9709C85.933 43.6221 85.8269 43.2659 85.6602 42.8339C85.4935 42.4019 85.3343 42.1064 85.1903 41.9472C84.963 41.7047 84.7053 41.538 84.3946 41.447C84.0914 41.3561 83.7352 41.3106 83.3336 41.3106H81.8482V45.4712C81.8482 45.9032 81.8785 46.2518 81.9467 46.5019C82.0073 46.752 82.1286 46.949 82.3105 47.0855C82.4772 47.2143 82.7121 47.2977 83.0077 47.3355C83.3033 47.3734 83.7049 47.3962 84.2127 47.3962C84.4476 47.3962 84.7356 47.3962 85.0691 47.3886C85.4025 47.3886 85.6905 47.3583 85.9406 47.328C86.2286 47.2977 86.4938 47.2446 86.7363 47.1764C86.9864 47.1082 87.1683 47.0097 87.2896 46.8808C87.6154 46.5474 87.9792 46.0396 88.3885 45.3575C88.7977 44.6755 89.0629 44.1677 89.1918 43.8267H89.9345L89.6616 48.3208H76.134V47.525C76.3234 47.5099 76.5811 47.4871 76.907 47.4416C77.2329 47.3962 77.4602 47.3507 77.5966 47.2977C77.8543 47.1916 78.0286 47.0551 78.112 46.8884C78.2029 46.7217 78.2408 46.5095 78.2408 46.2518V36.0738C78.2408 35.8313 78.2029 35.6267 78.1271 35.4676C78.0513 35.3084 77.8694 35.1644 77.589 35.0356C77.4147 34.9522 77.1646 34.8764 76.8463 34.8082C76.528 34.74 76.2855 34.6945 76.1264 34.6794V33.8836H88.9114V37.5668H88.919ZM69.3209 48.6997C68.2599 48.6997 67.2747 48.5254 66.3501 48.1843C65.4255 47.8433 64.6222 47.3431 63.9401 46.6914C63.2656 46.0548 62.7427 45.2666 62.3562 44.3269C61.9697 43.3871 61.7802 42.3565 61.7802 41.2348C61.7802 40.1132 61.9773 39.0825 62.3638 38.1276C62.7503 37.1727 63.3035 36.3543 64.0083 35.6494C64.698 34.9674 65.5316 34.4369 66.5016 34.058C67.4717 33.679 68.51 33.4896 69.6088 33.4896C70.4122 33.4896 71.1397 33.5881 71.7915 33.7775C72.4508 33.967 73.004 34.1868 73.4587 34.4369L74.0878 33.8761H74.9744L75.0654 39.1432H74.1711C73.6634 37.5365 73.0495 36.3618 72.3447 35.604C71.6323 34.8537 70.7684 34.4748 69.7453 34.4748C68.4721 34.4748 67.502 35.0356 66.8351 36.1572C66.1682 37.2788 65.8423 38.8552 65.8423 40.8786C65.8423 42.023 65.956 43.0006 66.1833 43.8115C66.4107 44.6224 66.7063 45.2742 67.07 45.7668C67.4641 46.2821 67.9264 46.6611 68.4645 46.9036C69.0026 47.1461 69.5937 47.2673 70.2454 47.2673C71.1928 47.2673 72.0416 47.0097 72.7842 46.4943C73.5269 45.979 74.2014 45.1984 74.8153 44.1601L75.6868 44.6906C75.3988 45.2893 75.0654 45.8198 74.694 46.2897C74.3227 46.7596 73.8907 47.1688 73.4057 47.5023C72.8676 47.8736 72.2765 48.1692 71.6323 48.3738C70.9881 48.586 70.2227 48.6921 69.3436 48.6921L69.3209 48.6997ZM61.371 34.6794C61.1815 34.7021 60.9087 34.74 60.5601 34.7931C60.2115 34.8461 59.8856 34.9825 59.6052 35.1872C59.3551 35.369 59.1732 35.6798 59.0747 36.1269C58.9762 36.574 58.9155 37.2258 58.9155 38.0822V48.389H57.1043L48.1161 37.2409V44.0086C48.1161 44.8498 48.1692 45.4864 48.2828 45.9259C48.3965 46.3655 48.5784 46.6838 48.8285 46.8884C49.0104 47.04 49.306 47.1688 49.7 47.2825C50.0941 47.3962 50.42 47.472 50.6549 47.5174V48.3132H44.4557V47.5174C44.7209 47.4947 45.0241 47.4492 45.3651 47.3734C45.7061 47.2977 45.9941 47.1764 46.2215 47.0097C46.4867 46.8126 46.6686 46.5171 46.7671 46.123C46.8657 45.7289 46.9111 45.062 46.9111 44.1223V37.294C46.9111 36.953 46.8581 36.6347 46.752 36.3315C46.6459 36.0284 46.4792 35.7707 46.2594 35.5509C46.0244 35.3236 45.7516 35.1417 45.4409 35.0053C45.1302 34.8764 44.7816 34.7703 44.3875 34.6946V33.8836H49.8137L57.703 43.6448V38.1883C57.703 37.3167 57.6423 36.6726 57.5287 36.2482C57.415 35.8238 57.2331 35.513 56.983 35.3084C56.786 35.1493 56.498 35.0204 56.1115 34.9068C55.725 34.7931 55.4142 34.7173 55.1793 34.6794V33.8836H61.371V34.6794ZM37.6123 42.4777L35.5206 37.2561L33.4592 42.4777H37.6198H37.6123ZM45.1832 48.3132H37.3243V47.5174C37.6881 47.4871 38.12 47.4265 38.6126 47.3204C39.1052 47.2143 39.3553 47.0855 39.3553 46.9263C39.3553 46.8733 39.3553 46.8126 39.3402 46.7444C39.325 46.6762 39.3023 46.5853 39.2568 46.4716L38.0291 43.4857H33.05C32.9363 43.7661 32.8075 44.0919 32.6711 44.4633C32.5347 44.8346 32.4134 45.1681 32.3073 45.4637C32.1785 45.8426 32.1027 46.1154 32.0799 46.2897C32.0572 46.4564 32.042 46.5777 32.042 46.6459C32.042 46.8657 32.2088 47.0476 32.5347 47.1991C32.8605 47.3507 33.4138 47.4644 34.1792 47.5326V48.3283H28.2604V47.5326C28.4877 47.5174 28.7378 47.4871 29.0182 47.4265C29.2986 47.3659 29.5184 47.2901 29.6851 47.184C29.9655 47.0248 30.2005 46.8202 30.3899 46.5853C30.5794 46.3503 30.7461 46.0699 30.875 45.7441C31.6631 43.8418 32.4513 41.9321 33.2395 40.0223C34.0276 38.1125 34.8992 36.0056 35.854 33.7018H37.8851C39.2113 36.9681 40.2572 39.5524 41.0075 41.447C41.7577 43.3417 42.4019 44.918 42.9324 46.1609C43.0233 46.3655 43.1294 46.5474 43.2659 46.7141C43.4023 46.8808 43.5917 47.04 43.8418 47.184C44.0313 47.2901 44.2511 47.3734 44.5012 47.4265C44.7513 47.4795 44.9786 47.5174 45.1832 47.525V48.3208V48.3132ZM23.0842 37.5896C23.0842 36.6271 22.8114 35.9223 22.2733 35.4827C21.7352 35.0432 20.9698 34.8158 19.9694 34.8158H19.1661V40.8559H19.9391C20.9319 40.8559 21.7049 40.5982 22.2582 40.0753C22.8114 39.5524 23.0842 38.7263 23.0842 37.5971V37.5896ZM30.0034 48.3132H24.4711C23.5162 46.8505 22.7204 45.6834 22.0839 44.8195C21.4473 43.9555 20.6591 42.9476 19.7193 41.8108H19.1585V46.1912C19.1585 46.4337 19.204 46.6383 19.295 46.8126C19.3859 46.9869 19.5602 47.1234 19.8179 47.237C19.9467 47.2901 20.1513 47.3507 20.4242 47.4038C20.697 47.4568 20.9319 47.5023 21.129 47.5174V48.3132H13.4367V47.5174C13.6338 47.4947 13.8915 47.472 14.2173 47.4341C14.5356 47.3962 14.7706 47.3507 14.907 47.2977C15.1646 47.1916 15.339 47.0551 15.4223 46.8884C15.5133 46.7217 15.5512 46.5095 15.5512 46.2518V36.0738C15.5512 35.8313 15.5133 35.6267 15.4375 35.46C15.3617 35.3008 15.1798 35.1568 14.8994 35.0356C14.6796 34.9446 14.4295 34.8764 14.134 34.8082C13.8384 34.7476 13.6035 34.7021 13.4367 34.6794V33.8836H21.5306C23.3419 33.8836 24.7136 34.1641 25.6533 34.7324C26.5931 35.3008 27.0629 36.1572 27.0629 37.3016C27.0629 38.3095 26.775 39.1204 26.1914 39.7343C25.6154 40.3481 24.7288 40.8256 23.5465 41.1742C24.0088 41.7729 24.5469 42.4626 25.1607 43.2507C25.7746 44.0389 26.4112 44.8422 27.0781 45.6607C27.2903 45.9259 27.5783 46.2518 27.9345 46.6307C28.2983 47.0097 28.6165 47.2522 28.897 47.3355C29.0561 47.381 29.2531 47.4265 29.4881 47.4568C29.7306 47.4871 29.8973 47.5099 30.0034 47.5174V48.3132ZM12.9441 37.7411H12.1635C11.9665 37.1803 11.6179 36.5816 11.1253 35.945C10.6251 35.3084 10.1552 34.9674 9.7081 34.8992C9.50348 34.8689 9.23066 34.8461 8.8972 34.831C8.55617 34.8082 8.24545 34.8006 7.96504 34.8006H5.72179V40.4618H7.15414C7.56338 40.4618 7.91199 40.4163 8.21513 40.3254C8.5107 40.2345 8.77594 40.0677 9.01088 39.8328C9.17761 39.6661 9.34433 39.3781 9.50348 38.984C9.66263 38.5899 9.76115 38.2489 9.79147 37.9609H10.5645V44.0313H9.79147C9.76115 43.7282 9.66263 43.3568 9.47317 42.9173C9.29128 42.4777 9.13213 42.1897 9.0033 42.0457C8.80626 41.826 8.55617 41.6668 8.25303 41.5607C7.94988 41.4546 7.57853 41.4016 7.15414 41.4016H5.72179V46.176C5.72179 46.4185 5.76727 46.6307 5.85821 46.7975C5.94915 46.9718 6.12346 47.1082 6.38113 47.2219C6.5327 47.2825 6.73732 47.3355 6.99499 47.3886C7.25266 47.4416 7.51791 47.4795 7.77558 47.5023V48.298H0V47.5023C0.197042 47.4795 0.454712 47.4568 0.780589 47.4189C1.10647 47.381 1.33382 47.3355 1.46266 47.2825C1.70517 47.1916 1.87948 47.0551 1.97042 46.8884C2.06136 46.7217 2.11441 46.5019 2.11441 46.2367V36.0587C2.11441 35.8313 2.06894 35.6267 1.98558 35.4524C1.90221 35.2781 1.72791 35.1341 1.46266 35.0204C1.27319 34.9371 1.0231 34.8613 0.712382 34.7931C0.401662 34.7249 0.166728 34.6794 0 34.6642V33.8685H12.9593V37.7184L12.9441 37.7411Z" fill="white"/>
<path d="M102.917 58.9762H101.825V61.9545H101.09V58.9762H100.014V58.3775H102.924V58.9762H102.917ZM95.1334 61.9545H94.3982L92.9659 59.6052V61.9545H92.2308V58.385H92.9659L94.3982 60.742V58.385H95.1334V61.9545ZM85.2509 60.6207H86.1452L85.6981 59.2869L85.2509 60.6207ZM86.3423 61.2194H85.0539L84.8114 61.9545H84.0308L85.357 58.385H86.0391L87.3729 61.9545H86.5924L86.3423 61.2194ZM77.3314 60.0523H77.9225C78.1044 60.0523 78.2484 60.0068 78.3545 59.9083C78.453 59.8174 78.506 59.6885 78.506 59.5218C78.506 59.3551 78.4606 59.2187 78.3621 59.1277C78.2635 59.0292 78.1195 58.9837 77.9225 58.9837H77.3314V60.0599V60.0523ZM77.9149 60.651H77.3314V61.9621H76.5963V58.3926H77.9225C78.3469 58.3926 78.6728 58.4836 78.9001 58.673C79.1275 58.8625 79.2412 59.1277 79.2412 59.4688C79.2412 59.7113 79.1881 59.9159 79.082 60.075C78.9759 60.2342 78.8168 60.3706 78.6046 60.4616L79.3776 61.9242V61.9621H78.5894L77.9225 60.651H77.9149ZM71.4656 58.385V60.742C71.4656 61.136 71.3443 61.4392 71.1018 61.6665C70.8593 61.8939 70.5259 62.0076 70.1015 62.0076C69.6771 62.0076 69.3512 61.8939 69.1087 61.6741C68.8662 61.4543 68.7373 61.1512 68.7297 60.7647V58.385H69.4649V60.742C69.4649 60.9769 69.5179 61.1436 69.6316 61.2497C69.7453 61.3558 69.8968 61.4089 70.0939 61.4089C70.5107 61.4089 70.7153 61.1891 70.7229 60.7571V58.3775H71.458L71.4656 58.385ZM61.8257 60.6283H62.72L62.2728 59.2945L61.8257 60.6283ZM62.917 61.227H61.6287L61.3861 61.9621H60.6055L61.9318 58.3926H62.6139L63.9477 61.9621H63.1671L62.917 61.227ZM56.2555 58.9837H55.1642V61.9621H54.429V58.9837H53.3529V58.385H56.263V58.9837H56.2555ZM47.8054 61.0224C47.8054 60.886 47.7599 60.7799 47.6614 60.7041C47.5629 60.6283 47.3886 60.5525 47.1309 60.4691C46.8732 60.3858 46.6762 60.3024 46.5246 60.2266C46.1154 60.0068 45.9183 59.7113 45.9183 59.3399C45.9183 59.1505 45.9714 58.9762 46.0851 58.8246C46.1912 58.673 46.3503 58.5518 46.5549 58.4684C46.7596 58.385 46.9869 58.3396 47.237 58.3396C47.4871 58.3396 47.722 58.385 47.9191 58.476C48.1161 58.5669 48.2753 58.6958 48.3814 58.8701C48.495 59.0368 48.5481 59.2263 48.5481 59.446H47.813C47.813 59.2793 47.7599 59.1581 47.6614 59.0671C47.5553 58.9762 47.4113 58.9307 47.2294 58.9307C47.0475 58.9307 46.9111 58.9686 46.8126 59.0444C46.7141 59.1202 46.661 59.2187 46.661 59.3475C46.661 59.4612 46.7217 59.5597 46.8353 59.6355C46.949 59.7113 47.1233 59.7871 47.3507 59.8553C47.7675 59.9841 48.0782 60.1357 48.2677 60.3251C48.4572 60.5146 48.5557 60.742 48.5557 61.0224C48.5557 61.3331 48.442 61.5756 48.2071 61.7499C47.9721 61.9242 47.6614 62.0152 47.2597 62.0152C46.9869 62.0152 46.7368 61.9621 46.5095 61.8636C46.2821 61.7651 46.1078 61.6287 45.9941 61.4468C45.8729 61.2725 45.8198 61.0678 45.8198 60.8405H46.5549C46.5549 61.2346 46.7899 61.4316 47.2597 61.4316C47.4341 61.4316 47.5705 61.3937 47.669 61.3255C47.7675 61.2573 47.813 61.1588 47.813 61.0299L47.8054 61.0224ZM40.7498 60.4085H39.3402V61.3634H40.9999V61.9545H38.6051V58.385H40.9923V58.9837H39.3402V59.8325H40.7498V60.4085ZM31.6101 60.0523H32.2012C32.3831 60.0523 32.5271 60.0068 32.6332 59.9083C32.7317 59.8174 32.7847 59.6885 32.7847 59.5218C32.7847 59.3551 32.7393 59.2187 32.6408 59.1277C32.5422 59.0292 32.3982 58.9837 32.2012 58.9837H31.6101V60.0599V60.0523ZM32.1936 60.651H31.6101V61.9621H30.875V58.3926H32.2012C32.6256 58.3926 32.9515 58.4836 33.1788 58.673C33.4062 58.8625 33.5199 59.1277 33.5199 59.4688C33.5199 59.7113 33.4668 59.9159 33.3607 60.075C33.2546 60.2342 33.0955 60.3706 32.8833 60.4616L33.6563 61.9242V61.9621H32.8681L32.2012 60.651H32.1936Z" fill="white"/>
</g>
<defs>
<clipPath id="clip0_53_18">
<rect width="133.632" height="62" fill="white"/>
</clipPath>
</defs>
</svg>
